<svg xmlns="http://www.w3.org/2000/svg" viewBox="0 0 900 280" preserveAspectRatio="none">
  <defs>
    <linearGradient id="panel" x1="0" y1="0" x2="0" y2="1">
      <stop stop-color="#1b3968"/>
      <stop offset=".18" stop-color="#102648"/>
      <stop offset="1" stop-color="#050c1c"/>
    </linearGradient>
  </defs>
  <g shape-rendering="crispEdges">
    <path d="M18 3h864v13h13v248h-13v13H18V264H5V16h13z" fill="#f8f1d3"/>
    <path d="M26 13h848v10h10v228h-10v10H26v-10H16V23h10z" fill="#506889"/>
    <path d="M33 23h834v208h-10v10H43v-10H33z" fill="url(#panel)" stroke="#070b15" stroke-width="6"/>
    <path d="M33 23h62v7H42v30h-9zm834 0h-62v7h53v30h9zM33 231h62v-7H42v-30h-9zm834 0h-62v-7h53v-30h9z" fill="#f7d765"/>
    <path d="M69 38h24v8H69zm738 0h24v8h-24zM69 205h24v8H69zm738 0h24v8h-24z" fill="#77d9e7"/>
  </g>
</svg>
